<svg xmlns="http://www.w3.org/2000/svg" width="1560" height="430">
<rect width="100%" height="100%" fill="white"/>
<line x1="80" y1="90" x2="170" y2="90" stroke="#d95f02" stroke-width="1"/>
<line x1="170" y1="90" x2="260" y2="90" stroke="#d95f02" stroke-width="1"/>
<line x1="260" y1="90" x2="350" y2="90" stroke="#d95f02" stroke-width="1"/>
<line x1="350" y1="90" x2="440" y2="90" stroke="#d95f02" stroke-width="1"/>
<line x1="440" y1="90" x2="530" y2="90" stroke="#d95f02" stroke-width="1"/>
<line x1="530" y1="90" x2="620" y2="90" stroke="#d95f02" stroke-width="1"/>
<line x1="620" y1="90" x2="710" y2="90" stroke="#d95f02" stroke-width="1"/>
<line x1="800" y1="310" x2="890" y2="310" stroke="#d95f02" stroke-width="1"/>
<line x1="890" y1="310" x2="980" y2="310" stroke="#d95f02" stroke-width="1"/>
<line x1="980" y1="310" x2="1070" y2="310" stroke="#d95f02" stroke-width="1"/>
<line x1="1070" y1="310" x2="1160" y2="310" stroke="#d95f02" stroke-width="1"/>
<line x1="1160" y1="310" x2="1250" y2="310" stroke="#d95f02" stroke-width="1"/>
<line x1="1250" y1="310" x2="1340" y2="310" stroke="#d95f02" stroke-width="1"/>
<line x1="1340" y1="310" x2="1430" y2="310" stroke="#d95f02" stroke-width="1"/>
<line x1="80" y1="90" x2="800" y2="310" stroke="#d95f02" stroke-width="1"/>
<line x1="170" y1="90" x2="890" y2="310" stroke="#d95f02" stroke-width="1"/>
<line x1="260" y1="90" x2="980" y2="310" stroke="#d95f02" stroke-width="1"/>
<line x1="350" y1="90" x2="1070" y2="310" stroke="#d95f02" stroke-width="1"/>
<line x1="440" y1="90" x2="1160" y2="310" stroke="#d95f02" stroke-width="1"/>
<line x1="530" y1="90" x2="1250" y2="310" stroke="#d95f02" stroke-width="1"/>
<line x1="620" y1="90" x2="1340" y2="310" stroke="#d95f02" stroke-width="1"/>
<line x1="710" y1="90" x2="1430" y2="310" stroke="#d95f02" stroke-width="1"/>
<line x1="80" y1="90" x2="170" y2="90" stroke="#1b6ca8" stroke-width="4"/>
<line x1="170" y1="90" x2="260" y2="90" stroke="#1b6ca8" stroke-width="4"/>
<line x1="260" y1="90" x2="350" y2="90" stroke="#1b6ca8" stroke-width="4"/>
<line x1="350" y1="90" x2="440" y2="90" stroke="#1b6ca8" stroke-width="4"/>
<line x1="440" y1="90" x2="530" y2="90" stroke="#1b6ca8" stroke-width="4"/>
<line x1="530" y1="90" x2="620" y2="90" stroke="#1b6ca8" stroke-width="4"/>
<line x1="620" y1="90" x2="710" y2="90" stroke="#1b6ca8" stroke-width="4"/>
<line x1="800" y1="310" x2="890" y2="310" stroke="#1b6ca8" stroke-width="4"/>
<line x1="890" y1="310" x2="980" y2="310" stroke="#1b6ca8" stroke-width="4"/>
<line x1="980" y1="310" x2="1070" y2="310" stroke="#1b6ca8" stroke-width="4"/>
<line x1="1070" y1="310" x2="1160" y2="310" stroke="#1b6ca8" stroke-width="4"/>
<line x1="1160" y1="310" x2="1250" y2="310" stroke="#1b6ca8" stroke-width="4"/>
<line x1="1250" y1="310" x2="1340" y2="310" stroke="#1b6ca8" stroke-width="4"/>
<line x1="1340" y1="310" x2="1430" y2="310" stroke="#1b6ca8" stroke-width="4"/>
<circle cx="80" cy="90" r="8" fill="#333"/>
<text x="62" y="76" font-size="12">p0</text>
<circle cx="170" cy="90" r="8" fill="#333"/>
<text x="152" y="76" font-size="12">p1</text>
<circle cx="260" cy="90" r="8" fill="#333"/>
<text x="242" y="76" font-size="12">p2</text>
<circle cx="350" cy="90" r="8" fill="#333"/>
<text x="332" y="76" font-size="12">p3</text>
<circle cx="440" cy="90" r="8" fill="#333"/>
<text x="422" y="76" font-size="12">p4</text>
<circle cx="530" cy="90" r="8" fill="#333"/>
<text x="512" y="76" font-size="12">p5</text>
<circle cx="620" cy="90" r="8" fill="#333"/>
<text x="602" y="76" font-size="12">p6</text>
<circle cx="710" cy="90" r="8" fill="#333"/>
<text x="692" y="76" font-size="12">p7</text>
<circle cx="800" cy="310" r="8" fill="#333"/>
<text x="782" y="296" font-size="12">s0</text>
<circle cx="890" cy="310" r="8" fill="#333"/>
<text x="872" y="296" font-size="12">s1</text>
<circle cx="980" cy="310" r="8" fill="#333"/>
<text x="962" y="296" font-size="12">s2</text>
<circle cx="1070" cy="310" r="8" fill="#333"/>
<text x="1052" y="296" font-size="12">s3</text>
<circle cx="1160" cy="310" r="8" fill="#333"/>
<text x="1142" y="296" font-size="12">s4</text>
<circle cx="1250" cy="310" r="8" fill="#333"/>
<text x="1232" y="296" font-size="12">s5</text>
<circle cx="1340" cy="310" r="8" fill="#333"/>
<text x="1322" y="296" font-size="12">s6</text>
<circle cx="1430" cy="310" r="8" fill="#333"/>
<text x="1412" y="296" font-size="12">s7</text>
</svg>